<?xml version="1.0" encoding="utf-8"?>
<!-- Generator: Adobe Illustrator 24.0.2, SVG Export Plug-In . SVG Version: 6.00 Build 0)  -->
<svg version="1.1" id="Layer_1" xmlns="http://www.w3.org/2000/svg" xmlns:xlink="http://www.w3.org/1999/xlink" x="0px" y="0px"
	 viewBox="0 0 85 85" style="enable-background:new 0 0 85 85;" xml:space="preserve">
<style type="text/css">
	.st0{fill:#FFFFFF;}
	.st1{fill:#FF50C9;}
	.st2{fill:none;stroke:#FFFFFF;stroke-miterlimit:10;}
	.st3{fill:none;stroke:#FFFFFF;stroke-linecap:round;stroke-miterlimit:10;}
	.st4{fill:none;stroke:#FFFFFF;stroke-width:0.6903;stroke-linecap:round;stroke-miterlimit:10;}
	.st5{fill:none;stroke:#FFFFFF;stroke-width:0.75;stroke-linecap:round;stroke-linejoin:round;stroke-miterlimit:10;}
	.st6{fill:none;stroke:#FFFFFF;stroke-width:0.75;stroke-miterlimit:10;}
	.st7{fill:#FCC509;}
	.st8{fill:none;stroke:#FFFFFF;stroke-width:14;stroke-linecap:round;stroke-miterlimit:10;}
	.st9{fill:none;stroke:#FFFFFF;stroke-width:3;stroke-linecap:round;stroke-miterlimit:10;}
	.st10{fill:none;stroke:#FFFFFF;stroke-width:0.9019;stroke-miterlimit:10;}
	.st11{fill:none;stroke:#FFFFFF;stroke-width:0.7933;stroke-miterlimit:10;}
	.st12{fill:none;stroke:#FFFFFF;stroke-width:0.9435;stroke-linecap:round;stroke-miterlimit:10;}
	.st13{fill:none;stroke:#FFFFFF;stroke-width:0.9327;stroke-linecap:round;stroke-miterlimit:10;}
	.st14{fill:none;stroke:#FFFFFF;stroke-width:0.9228;stroke-linecap:round;stroke-miterlimit:10;}
	.st15{fill:none;stroke:#FFFFFF;stroke-width:0.6934;stroke-linecap:round;stroke-miterlimit:10;}
	.st16{fill:none;stroke:#FFFFFF;stroke-width:0.7551;stroke-miterlimit:10;}
	.st17{fill:none;stroke:#FFFFFF;stroke-width:0.9739;stroke-miterlimit:10;}
	.st18{fill:none;stroke:#FFFFFF;stroke-width:0.7354;stroke-miterlimit:10;}
	.st19{fill:none;stroke:#FFFFFF;stroke-width:1.098;stroke-linecap:round;stroke-miterlimit:10;}
	.st20{fill:#FFFFFF;stroke:#FFFFFF;stroke-linecap:round;stroke-miterlimit:10;}
	.st21{fill:none;stroke:#FFFFFF;stroke-width:0.6488;stroke-linecap:round;stroke-miterlimit:10;}
	.st22{fill:none;stroke:#FFFFFF;stroke-width:0.7072;stroke-linecap:round;stroke-miterlimit:10;}
</style>
<g>
	<path class="st7" d="M45.1,26.7c1,0.7,2.1,1.3,3.2,1.8c1.2,0.5,2.3,0.9,3.6,1.2c1.2,0.4,2.5,0.4,3.8,0.5c0.3,0,0.6,0,1,0
		c-0.2,3.2-0.6,6.4-1.2,9.6c-0.8,4.1-1.9,8.3-3.1,12.2l0,0.1c0,0,0,0,0,0.1c-0.5,1.7,0.5,3.5,2.2,4c1.7,0.5,3.5-0.5,4-2.2
		c1.3-4.4,2.3-8.7,3-13.1C62,36.9,62.4,33,62.4,29l0.6-0.2c0.6-0.2,1.2-0.5,1.7-0.8l1.7-0.9c0.1-0.1,0.2-0.1,0.3-0.2
		c1.4-0.9,1.7-2.8,0.8-4.2c-0.9-1.4-2.8-1.7-4.2-0.8l-0.3,0.2c-0.3,0.2-0.7,0.4-1,0.7c-0.1-0.8-0.2-1.5-0.3-2.3
		c-0.3-2.2-0.8-4.5-1.4-6.7c-0.6-2.2-1.4-4.4-2.5-6.6c-0.5-1.1-1.2-2.2-2-3.2c-0.4-0.5-0.9-1-1.4-1.5C54,2,53.5,1.5,52.8,1.1
		c-0.3-0.2-0.7-0.4-1-0.5c-0.4-0.1-0.8-0.3-1.1-0.4c-0.4-0.1-0.8-0.1-1.2-0.2c-0.4,0-0.8-0.1-1.1,0c-1.4,0-2.8,0.3-4.1,0.9
		c-2.6,1.1-4.7,3.4-5.7,5.8c-0.6,1.2-0.9,2.5-1.1,3.7c-0.2,1.3-0.3,2.5-0.3,3.7c0.1,2.9,1.3,5.3,2.7,7.4
		C41.2,23.6,43.1,25.2,45.1,26.7z M43.1,8.8c0.7-1.6,1.8-2.7,3.2-3.3c0.7-0.3,1.4-0.5,2.2-0.5c0.7,0,1.1,0.1,1.7,0.5
		c1.1,0.6,2.2,2.2,3,3.9c0.8,1.7,1.5,3.6,1.9,5.6c0.5,2,0.8,4,1.1,6.1c0.1,1.2,0.2,2.5,0.3,3.7c-0.3,0-0.7,0.1-1,0.1
		c-0.9-0.1-1.8,0-2.7-0.2c-1.8-0.3-3.6-1-5.1-2.1c-1.6-1-3-2.4-4-3.9c-1-1.5-1.7-3.3-1.7-4.7C42,12.2,42.3,10.3,43.1,8.8z"/>
	<circle class="st7" cx="42" cy="33.4" r="4.2"/>
	<path class="st7" d="M81.9,63.3c-0.1,0-14.3,1.1-31.7,4c-16.8,2.7-35.3,0.2-47-3c-0.3-0.1-0.6,0.1-0.6,0.4
		c-0.1,0.3,0.1,0.6,0.4,0.6c8.3,2.3,19.9,4.2,32,4.2c5.2,0,10.4-0.4,15.5-1.2c17.3-2.8,31.5-3.9,31.6-3.9c0.3,0,0.5-0.3,0.5-0.5
		C82.4,63.5,82.2,63.3,81.9,63.3z"/>
	<path class="st7" d="M78.3,68.5c-0.1,0-10.9-0.8-28.3,3.7c-15.8,4.1-31.6,5.5-38.5,3.6c-0.3-0.1-0.6,0.1-0.6,0.3s0.1,0.6,0.3,0.6
		c2.1,0.6,5.1,0.9,8.6,0.9c8.1,0,19.3-1.6,30.5-4.5c17.2-4.5,27.9-3.7,28-3.7c0.3,0,0.5-0.2,0.5-0.5C78.8,68.7,78.6,68.5,78.3,68.5z
		"/>
	<path class="st7" d="M75,73.4c-5.4-0.3-17,3.3-27.1,6.5c-5.7,1.8-11,3.5-14.2,4.1c-0.3,0.1-0.5,0.3-0.4,0.6c0,0.2,0.3,0.4,0.5,0.4
		c0,0,0.1,0,0.1,0c3.2-0.6,8.6-2.3,14.3-4.1c10.1-3.2,21.5-6.8,26.8-6.5c0.3,0,0.5-0.2,0.5-0.5C75.5,73.6,75.3,73.4,75,73.4z"/>
</g>
</svg>
